# xmcd CD database file
#
# Track frame offsets:
#	150
#	54812
#	82937
#	120700
#	169417
#
# Disc length: 2638 seconds
#
# Revision: 0
# Processed by: cddbd v1.4PL0 Copyright (c) Steve Scherf et al.
# Submitted via: CDex 1.50Beta7
#
DISCID=340a4c05
DTITLE=Lindsay Cooper - Sahara Dust
DYEAR=1992
DGENRE=New Age
TTITLE0=Part 1
TTITLE1=Part 2
TTITLE2=Part 3
TTITLE3=Part 4
TTITLE4=Part 5
EXTD=YEAR: 1992
EXTT0=
EXTT1=
EXTT2=
EXTT3=
EXTT4=
PLAYORDER=
